HIERARCHY
ROOT Hips
{
	OFFSET 0.000000 0.000000 0.000000
	CHANNELS 6 Xposition Yposition Zposition Zrotation Yrotation Xrotation 
	JOINT LHipJoint
	{
		OFFSET 0.000000 0.000000 0.000000
		CHANNELS 3 Zrotation Yrotation Xrotation
		JOINT LeftUpLeg
		{
			OFFSET 1.363060 -1.794630 0.839290
			CHANNELS 3 Zrotation Yrotation Xrotation
			JOINT LeftLeg
			{
				OFFSET 2.448110 -6.726130 0.000000
				CHANNELS 3 Zrotation Yrotation Xrotation
				JOINT LeftFoot
				{
					OFFSET 2.562200 -7.039590 0.000000
					CHANNELS 3 Zrotation Yrotation Xrotation
					JOINT LeftToeBase
					{
						OFFSET 0.157640 -0.433110 2.322550
						CHANNELS 3 Zrotation Yrotation Xrotation
						End Site
						{
							OFFSET 0.000000 0.000000 0.000000
						}
					}
				}
			}
		}
	}
	JOINT RHipJoint
	{
		OFFSET 0.000000 0.000000 0.000000
		CHANNELS 3 Zrotation Yrotation Xrotation
		JOINT RightUpLeg
		{
			OFFSET -1.305520 -1.794630 0.839290
			CHANNELS 3 Zrotation Yrotation Xrotation
			JOINT RightLeg
			{
				OFFSET -2.542530 -6.985550 0.000000
				CHANNELS 3 Zrotation Yrotation Xrotation
				JOINT RightFoot
				{
					OFFSET -2.568260 -7.056230 0.000000
					CHANNELS 3 Zrotation Yrotation Xrotation
					JOINT RightToeBase
					{
						OFFSET -0.164730 -0.452590 2.363150
						CHANNELS 3 Zrotation Yrotation Xrotation
						End Site
						{
							OFFSET 0.000000 0.000000 0.000000
						}
					}
				}
			}
		}
	}
	JOINT LowerBack
	{
		OFFSET 0.000000 0.000000 0.000000
		CHANNELS 3 Zrotation Yrotation Xrotation
		JOINT Spine
		{
			OFFSET 0.028270 2.035590 -0.193380
			CHANNELS 3 Zrotation Yrotation Xrotation
			JOINT Spine1
			{
				OFFSET 0.056720 2.048850 -0.042750
				CHANNELS 3 Zrotation Yrotation Xrotation
				JOINT Neck
				{
					OFFSET 0.000000 0.000000 0.000000
					CHANNELS 3 Zrotation Yrotation Xrotation
					JOINT Neck1
					{
						OFFSET -0.054170 1.746240 0.172020
						CHANNELS 3 Zrotation Yrotation Xrotation
						JOINT Head
						{
							OFFSET 0.104070 1.761360 -0.123970
							CHANNELS 3 Zrotation Yrotation Xrotation
							End Site
							{
								OFFSET 0.000000 0.000000 0.000000
							}
						}
					}
				}
				JOINT LeftShoulder
				{
					OFFSET 0.000000 0.000000 0.000000
					CHANNELS 3 Zrotation Yrotation Xrotation
					JOINT LeftArm
					{
						OFFSET 3.362410 1.200890 -0.311210
						CHANNELS 3 Zrotation Yrotation Xrotation
						JOINT LeftForeArm
						{
							OFFSET 4.983000 -0.000000 -0.000000
							CHANNELS 3 Zrotation Yrotation Xrotation
							JOINT LeftHand
							{
								OFFSET 3.483560 -0.000000 -0.000000
								CHANNELS 3 Zrotation Yrotation Xrotation
								JOINT LeftFingerBase
								{
									OFFSET 0.000000 0.000000 0.000000
									CHANNELS 3 Zrotation Yrotation Xrotation
									JOINT LeftHandIndex1
									{
										OFFSET 0.715260 -0.000000 -0.000000
										CHANNELS 3 Zrotation Yrotation Xrotation
										End Site
										{
											OFFSET 0.000000 0.000000 0.000000
										}
									}
								}
								JOINT LThumb
								{
									OFFSET 0.000000 0.000000 0.000000
									CHANNELS 3 Zrotation Yrotation Xrotation
									End Site
									{
										OFFSET 0.000000 0.000000 0.000000
									}
								}
							}
						}
					}
				}
				JOINT RightShoulder
				{
					OFFSET 0.000000 0.000000 0.000000
					CHANNELS 3 Zrotation Yrotation Xrotation
					JOINT RightArm
					{
						OFFSET -3.136600 1.374050 -0.404650
						CHANNELS 3 Zrotation Yrotation Xrotation
						JOINT RightForeArm
						{
							OFFSET -5.241900 -0.000000 -0.000000
							CHANNELS 3 Zrotation Yrotation Xrotation
							JOINT RightHand
							{
								OFFSET -3.444170 -0.000000 -0.000000
								CHANNELS 3 Zrotation Yrotation Xrotation
								JOINT RightFingerBase
								{
									OFFSET 0.000000 0.000000 0.000000
									CHANNELS 3 Zrotation Yrotation Xrotation
									JOINT RightHandIndex1
									{
										OFFSET -0.622530 -0.000000 -0.000000
										CHANNELS 3 Zrotation Yrotation Xrotation
										End Site
										{
											OFFSET 0.000000 0.000000 0.000000
										}
									}
								}
								JOINT RThumb
								{
									OFFSET 0.000000 0.000000 0.000000
									CHANNELS 3 Zrotation Yrotation Xrotation
									End Site
									{
										OFFSET 0.000000 0.000000 0.000000
									}
								}
							}
						}
					}
				}
			}
		}
	}
}
MOTION
Frames: 8
Frame Time: 0.008333
24.508912 16.806445 1.990362 146.506818 -82.045298 -108.960092 -7.340298 -0.632689 4.403302 -9.439333 -13.672329 -73.733983 0.068327 3.032009 59.042547 3.307508 12.851441 -13.761191 -0.630300 0.000000 -20.916600 12.674324 -3.008195 1.294154 -1.035141 -2.829458 -8.431487 0.968740 -0.073187 3.126774 -0.136853 0.713291 18.205690 0.107100 0.000000 -74.228400 -7.452360 2.429205 -4.455840 -1.841773 2.847438 -4.194513 -2.464872 2.683198 -0.755125 1.493315 -3.728138 -2.582801 0.532705 -0.046062 1.333313 0.000000 0.000000 0.000000 11.171652 13.826729 1.927188 -35.096245 56.589915 45.783489 -1.507454 -70.883093 0.018005 -3.576931 -6.537712 0.200455 -0.113900 0.057092 -0.000000 0.000000 0.000000 0.000000 0.000000 0.000000 0.000000 -9.652678 1.605498 -3.882615 53.960443 60.928571 -3.461150 0.307173 87.076071 -0.027310 0.275224 8.139754 0.037880 -0.216366 -0.709888 0.000000 0.000000 0.000000 0.000000 0.000000 0.000000 0.000000 
24.249811 16.864506 1.994406 146.256122 -82.279062 -108.496765 -7.206776 -0.523273 4.561241 -9.305175 -14.054467 -73.547667 -0.099591 2.826050 56.332777 3.241808 12.538986 -12.763745 -0.334800 0.000000 -22.544301 12.765435 -3.044369 1.151882 -1.019200 -3.007769 -8.040070 0.864430 -0.133941 3.181989 -0.287161 -0.246108 19.522165 -0.269200 -0.000000 -69.951500 -7.675523 2.570135 -4.380643 -1.867266 3.002527 -4.198582 -2.344485 2.838407 -0.814188 1.250236 -3.518838 -2.512234 0.612238 -0.041557 1.349425 0.000000 0.000000 0.000000 10.957533 14.070288 1.887410 -36.013473 56.737303 44.319319 -1.398864 -72.324359 0.018877 -3.462952 -6.699788 0.198982 -0.113302 0.068522 -0.000000 0.000000 0.000000 0.000000 0.000000 0.000000 0.000000 -10.298498 1.863443 -3.954693 52.918953 60.803062 -4.987799 0.313125 86.730582 -0.027301 0.285627 8.057753 0.038580 -0.219343 -0.712294 0.000000 0.000000 0.000000 0.000000 0.000000 0.000000 0.000000 
23.989445 16.913259 1.996297 145.735077 -82.578291 -107.772444 -7.079215 -0.403677 4.699442 -9.241023 -14.365907 -73.328424 -0.262423 2.630137 53.690843 3.151232 12.190592 -11.619288 -0.015100 -0.000000 -24.388600 12.841173 -3.061641 1.033247 -0.919119 -3.003403 -7.670967 0.743434 -0.177506 3.565096 -0.478257 -1.738028 19.967490 -0.927600 -0.000000 -65.297200 -7.888728 2.691093 -4.308032 -1.897113 3.135561 -4.202661 -2.254240 2.972648 -0.869404 1.090525 -3.274240 -2.452049 0.664164 -0.038787 1.362170 0.000000 0.000000 0.000000 10.647465 14.291449 1.846287 -37.097106 56.753973 42.664440 -1.283517 -73.834928 0.019576 -3.326621 -6.860714 0.195807 -0.112242 0.079305 -0.000000 0.000000 0.000000 0.000000 0.000000 0.000000 0.000000 -10.759315 2.169635 -3.993651 52.009501 60.470894 -6.301623 0.319570 86.450130 -0.027868 0.219195 8.021059 0.033295 -0.218813 -0.714467 0.000000 0.000000 0.000000 0.000000 0.000000 0.000000 0.000000 
23.728097 16.952846 1.996907 144.873813 -82.952472 -106.740525 -6.967109 -0.280243 4.799997 -9.257415 -14.586675 -73.041631 -0.420638 2.450466 51.161222 3.033440 11.802576 -10.344718 0.317300 0.000000 -26.334400 12.890448 -3.063611 0.932800 -0.717819 -2.781655 -7.256482 0.604743 -0.207766 4.227875 -0.712189 -3.690666 19.668902 -1.802801 0.000000 -60.761600 -8.064486 2.794058 -4.211054 -1.924364 3.247196 -4.198523 -2.190510 3.087265 -0.914678 0.994951 -3.006118 -2.410811 0.688298 -0.037574 1.368752 0.000000 0.000000 0.000000 10.276390 14.523450 1.809015 -38.394248 56.511159 40.893284 -1.166658 -75.322516 0.020136 -3.108893 -7.042686 0.187737 -0.111383 0.089552 -0.000000 0.000000 0.000000 0.000000 0.000000 0.000000 0.000000 -11.051365 2.505767 -4.003332 51.302894 59.966100 -7.353975 0.324270 86.218193 -0.028741 0.104262 8.013683 0.024322 -0.215515 -0.715908 -0.000000 0.000000 0.000000 0.000000 0.000000 0.000000 0.000000 
23.466065 16.982798 1.996214 143.617704 -83.386137 -105.358637 -6.870011 -0.149800 4.862006 -9.381649 -14.707008 -72.673984 -0.576514 2.291536 48.783046 2.891968 11.382048 -8.976463 0.647700 -0.000000 -28.262300 12.920440 -3.046810 0.843784 -0.430884 -2.408524 -6.856069 0.456626 -0.235769 5.292428 -0.978154 -5.852646 18.686506 -2.721699 -0.000000 -56.597400 -8.209251 2.885139 -4.087662 -1.951567 3.344012 -4.187030 -2.155614 3.188936 -0.953101 0.963022 -2.722889 -2.385061 0.682393 -0.038144 1.370296 0.000000 0.000000 0.000000 9.829683 14.733264 1.772328 -39.869464 56.026844 38.993790 -1.050205 -76.782037 0.020506 -2.831014 -7.235208 0.175371 -0.110465 0.099357 -0.000000 0.000000 0.000000 0.000000 0.000000 0.000000 0.000000 -11.162772 2.867197 -3.975688 50.834978 59.294855 -8.118634 0.326600 86.013599 -0.029689 -0.046322 8.013732 0.012366 -0.209578 -0.716112 -0.000000 0.000000 0.000000 0.000000 0.000000 0.000000 0.000000 
23.202888 17.002913 1.994160 141.886494 -83.853741 -103.560891 -6.785016 -0.008182 4.882966 -9.640602 -14.724301 -72.199503 -0.732789 2.156136 46.587706 2.734232 10.944529 -7.572975 0.958400 0.000000 -30.063100 12.940344 -3.009405 0.758162 -0.087681 -1.947447 -6.505381 0.307179 -0.272918 6.823818 -1.262179 -7.978671 17.159705 -3.517800 -0.000000 -53.085100 -8.335683 2.968695 -3.931080 -1.982259 3.431284 -4.166779 -2.150676 3.283147 -0.983419 0.992894 -2.437815 -2.375468 0.644836 -0.040599 1.366565 0.000000 0.000000 0.000000 9.319006 14.911630 1.736954 -41.502793 55.272547 36.985016 -0.937226 -78.177919 0.020660 -2.485258 -7.435824 0.157708 -0.109559 0.108877 -0.000000 0.000000 0.000000 0.000000 0.000000 0.000000 0.000000 -11.084065 3.241677 -3.906698 50.646667 58.475206 -8.569680 0.324948 85.793931 -0.030428 -0.213989 7.998819 -0.000973 -0.201301 -0.714477 0.000000 0.000000 0.000000 0.000000 0.000000 0.000000 0.000000 
22.939109 17.013199 1.991986 139.727415 -84.355720 -101.407767 -6.723772 0.133722 4.853752 -10.010821 -14.608569 -71.602473 -0.887625 2.047692 44.624129 2.566237 10.489050 -6.220035 1.227100 0.000000 -31.651300 12.938649 -2.961414 0.672474 0.333178 -1.401866 -6.196543 0.165015 -0.328370 8.807555 -1.551736 -9.926899 15.305246 -4.106600 -0.000000 -50.535001 -8.418345 3.051041 -3.731833 -2.010972 3.514382 -4.134894 -2.175192 3.375454 -1.004003 1.072593 -2.163129 -2.383872 0.574934 -0.044953 1.356989 0.000000 0.000000 0.000000 8.732059 15.064111 1.702646 -43.255347 54.218081 34.898633 -0.830236 -79.484851 0.020577 -2.064348 -7.638705 0.133650 -0.108884 0.118244 -0.000000 0.000000 0.000000 0.000000 0.000000 0.000000 0.000000 -10.822505 3.619246 -3.796321 50.764846 57.522925 -8.687228 0.316573 85.504779 -0.030746 -0.384302 7.951777 -0.014594 -0.190930 -0.710373 -0.000000 0.000000 0.000000 0.000000 0.000000 0.000000 0.000000 
22.674900 17.013251 1.989968 137.111297 -84.859498 -98.881001 -6.683912 0.277514 4.777256 -10.495056 -14.363812 -70.865352 -1.041012 1.965285 42.918837 2.400362 10.037140 -5.012490 1.436700 0.000000 -32.965200 12.925758 -2.906531 0.573928 0.790017 -0.877814 -5.986987 0.043151 -0.415797 11.302795 -1.813265 -11.472408 13.275042 -4.398600 0.000000 -49.031500 -8.472803 3.134968 -3.485679 -2.041241 3.597422 -4.090447 -2.228119 3.469950 -1.013237 1.197278 -1.906182 -2.411324 0.473120 -0.051161 1.341194 0.000000 0.000000 0.000000 8.074917 15.198312 1.670849 -45.072946 52.835793 32.783032 -0.731054 -80.685143 0.020227 -1.561842 -7.836976 0.102296 -0.108594 0.127633 -0.000000 0.000000 0.000000 0.000000 0.000000 0.000000 0.000000 -10.381404 3.994013 -3.645404 51.207866 56.440966 -8.466952 0.301190 85.088469 -0.030546 -0.550750 7.863947 -0.027697 -0.178544 -0.703366 -0.000000 0.000000 0.000000 0.000000 0.000000 0.000000 0.000000 
